<svg
width="52"
height="46"
viewBox="0 0 52 46"
fill="none"
xmlns="http://www.w3.org/2000/svg"
>
<path
  d="M23.1111 0.25C21.5132 0.25 20.2222 1.70234 20.2222 3.5V13.8492C20.2222 14.418 19.816 14.875 19.3104 14.875C18.9854 14.875 18.6785 14.682 18.516 14.357L14.1826 5.83594C7.49306 9.54297 2.88889 17.2922 2.88889 26.25V32.75H49.1111V26.0063C49.0299 17.15 44.4437 9.5125 37.8174 5.83594L33.484 14.357C33.3215 14.682 33.0146 14.875 32.6896 14.875C32.184 14.875 31.7778 14.418 31.7778 13.8492V3.5C31.7778 1.70234 30.4868 0.25 28.8889 0.25H23.1111ZM1.49861 36C0.668056 36 0 36.7516 0 37.6859C0 38.1633 0.180556 38.6203 0.523611 38.8945C2.48264 40.5094 10.0931 45.75 26 45.75C41.9069 45.75 49.5174 40.5094 51.4764 38.8945C51.8194 38.6102 52 38.1633 52 37.6859C52 36.7516 51.3319 36 50.5014 36H1.49861Z"
  fill="white"
/>
</svg>